<?xml version="1.0" encoding="UTF-8"?> <svg xmlns="http://www.w3.org/2000/svg" id="Layer_1" data-name="Layer 1" viewBox="0 0 90 100"> <defs> <style>.cls-1{fill:none;stroke:#fff;stroke-miterlimit:10;stroke-width:5px;}</style> </defs> <title>qulaity</title> <circle class="cls-1" cx="24.94" cy="63.88" r="8.43"></circle> <circle class="cls-1" cx="62.35" cy="63.88" r="8.43"></circle> <line class="cls-1" x1="33.37" y1="63.88" x2="53.92" y2="63.88"></line> <path class="cls-1" d="M16.51,63.88H9.39a4.44,4.44,0,0,1-4.44-4.44V47.62A7.3,7.3,0,0,1,6.4,43.25l9.41-12.62a7.3,7.3,0,0,1,5.86-2.94H50.5a8.13,8.13,0,0,1,5.81,2.45l9.08,9.29a12.92,12.92,0,0,0,5.09,3.2l9.45,3.2A7.55,7.55,0,0,1,85.05,53v6.46a4.44,4.44,0,0,1-4.44,4.44H70.78"></path> </svg> 